<svg xmlns="http://www.w3.org/2000/svg" fill="#fff" viewBox="0 0 28 28" width="28" height="28" aria-label="Icon" role="img" data-darkreader-inline-fill="" style="--darkreader-inline-fill: currentColor;"><g transform="translate(4, 4)"><path fill-rule="evenodd" d="M17.854 2.854a.5.5 0 0 0-.708-.708l-15 15a.5.5 0 0 0 .708.708l3.982-3.983A5 5 0 0 0 9.5 14.975V17h-2a.5.5 0 0 0 0 1h5a.5.5 0 0 0 0-1h-2v-2.025A4.997 4.997 0 0 0 15 10a.5.5 0 0 0-1 0 4 4 0 0 1-6.453 3.16l.715-.715A3 3 0 0 0 13 10V7.707zM12 8.707l-3.016 3.016A2 2 0 0 0 12 10z" clip-rule="evenodd"></path><path d="M10 2a3 3 0 0 1 2.998 2.881L12 5.879V5a2 2 0 1 0-4 0v4.879l-.898.898A3 3 0 0 1 7 10V5a3 3 0 0 1 3-3M6.304 11.53l.013.031-.75.751A5 5 0 0 1 5 10a.5.5 0 0 1 1 0 4 4 0 0 0 .304 1.53"></path></g></svg>
