<svg xmlns="http://www.w3.org/2000/svg" fill="#fff" viewBox="0 0 28 28" width="28" height="28" aria-label="Icon" role="img">
  <g transform="translate(4, 4)">
    <path fill-rule="evenodd" d="M10 2a3 3 0 0 0-3 3v5a3 3 0 1 0 6 0V5a3 3 0 0 0-3-3m2 8V5a2 2 0 1 0-4 0v5a2 2 0 1 0 4 0" clip-rule="evenodd"></path>
    <path d="M5.5 9.5a.5.5 0 0 1 .5.5 4 4 0 1 0 8 0 .5.5 0 0 1 1 0 5 5 0 0 1-4.5 4.975V17h2a.5.5 0 0 1 0 1h-5a.5.5 0 0 1 0-1h2v-2.025A4.997 4.997 0 0 1 5 10a.5.5 0 0 1 .5-.5"></path>
  </g>
</svg>
