<svg xmlns="http://www.w3.org/2000/svg" fill="#fff" viewBox="0 0 32 32" width="32" height="32" aria-label="Icon" role="img">
  <g transform="translate(4, 4)">
    <path d="M4 6a2 2 0 0 1 2-2h8.465a1 1 0 0 1 .832.445L16.803 6.5h.394l1.531-2.297A2 2 0 0 1 20.394 3H20a2 2 0 0 1 2 2v14a2 2 0 0 1-2 2H6a2 2 0 0 1-2-2zm2-.5a.5.5 0 0 0-.5.5v12a.5.5 0 0 0 .5.5h14a.5.5 0 0 0 .5-.5V6a.5.5 0 0 0-.5-.5h-2.803l-1.545 2.318A1.5 1.5 0 0 1 14.403 8.5H9.597a1.5 1.5 0 0 1-1.249-.668L6.803 5.5z"></path>
    <path d="M9 11.5a2.5 2.5 0 1 1 5 0 2.5 2.5 0 0 1-5 0M11.5 10a1.5 1.5 0 1 0 0 3 1.5 1.5 0 0 0 0-3"></path>
  </g>
</svg>
